{"accessors":[{"bufferView":2,"componentType":5126,"count":22088,"max":[12.15108871459961,-19.606979370117188,7.816000938415527],"min":[-12.151082038879395,-43.908077239990234,-0.004390757996588945],"type":"VEC3"},{"bufferView":2,"byteOffset":265056,"componentType":5126,"count":22088,"max":[0.9996691942214966,0.9999473690986633,0.9999475479125977],"min":[-0.9999472498893738,-0.9999830722808838,-0.9999781847000122],"type":"VEC3"},{"bufferView":1,"componentType":5126,"count":22088,"max":[0.9998326301574707,0.9788028597831726],"min":[0.006749271880835295,0],"type":"VEC2"},{"bufferView":0,"componentType":5125,"count":43236,"type":"SCALAR"}],"asset":{"extras":{"author":"dhimanvenay93 (https://sketchfab.com/dhimanvenay93)","license":"CC-BY-4.0 (http://creativecommons.org/licenses/by/4.0/)","source":"https://sketchfab.com/3d-models/crown-8ad2c5cb23f247e4a5aee99612a4f2a2","title":"Crown"},"generator":"Sketchfab-12.65.0","version":"2.0"},"bufferViews":[{"buffer":0,"byteLength":172944,"name":"floatBufferViews","target":34963},{"buffer":0,"byteLength":176704,"byteOffset":172944,"byteStride":8,"name":"floatBufferViews","target":34962},{"buffer":0,"byteLength":530112,"byteOffset":349648,"byteStride":12,"name":"floatBufferViews","target":34962}],"buffers":[{"byteLength":879760,"uri":"data:application/octet-stream;base64,"}],"materials":[{"doubleSided":true,"name":"Scene_-_Root","pbrMetallicRoughness":{"metallicFactor":0,"roughnessFactor":0.6}}],"meshes":[{"name":"Crown_1LP__0","primitives":[{"attributes":{"NORMAL":1,"POSITION":0,"TEXCOORD_0":2},"indices":3,"material":0,"mode":4}]}],"nodes":[{"children":[1],"matrix":[1,0,0,0,0,2.220446049250313e-16,-1,0,0,1,2.220446049250313e-16,0,0,0,0,1],"name":"Sketchfab_model"},{"children":[2],"matrix":[1,0,0,0,0,0,1,0,0,-1,0,0,0,0,0,1],"name":"7f2b3505785442878fe23c89a238c263.fbx"},{"children":[3],"name":"RootNode"},{"children":[4],"matrix":[26.60926055908203,0,0,0,0,5.908442748188587e-15,-26.60926055908203,0,0,26.60926055908203,5.908442748188587e-15,0,0,-0.3028883635997772,-843.92041015625,1],"name":"Crown_1LP"},{"mesh":0,"name":"Crown_1LP__0"}],"scene":0,"scenes":[{"name":"Sketchfab_Scene","nodes":[0]}]}